<svg width="32" height="32" viewBox="0 0 32 32" fill="none" xmlns="http://www.w3.org/2000/svg">
<rect width="32" height="32" fill="white"/>
<mask id="path-1-inside-1_9_84" fill="white">
<path fill-rule="evenodd" clip-rule="evenodd" d="M11.5 6C6.80558 6 3 9.80558 3 14.5V26H20V23.312C21.0798 24.357 22.5508 25 24.1721 25C27.4858 25 30.1721 22.3137 30.1721 19C30.1721 15.6863 27.4858 13 24.1721 13C22.5508 13 21.0798 13.643 20 14.688V14.5C20 9.80558 16.1944 6 11.5 6Z"/>
</mask>
<path d="M3 26H1L3 28V26ZM20 26V28L22 26H20ZM20 23.312L21.3909 21.8748L18 23.312H20ZM20 14.688H18L21.3909 16.1252L20 14.688ZM5 14.5C5 10.9101 7.91015 8 11.5 8V4C5.70101 4 1 8.70101 1 14.5H5ZM5 26V14.5H1V26H5ZM20 24H3V28H20V24ZM18 23.312V26H22V23.312H18ZM24.1721 23C23.0905 23 22.1126 22.5733 21.3909 21.8748L18.6091 24.7492C20.0469 26.1406 22.0112 27 24.1721 27V23ZM28.1721 19C28.1721 21.2091 26.3813 23 24.1721 23V27C28.5904 27 32.1721 23.4183 32.1721 19H28.1721ZM24.1721 15C26.3813 15 28.1721 16.7909 28.1721 19H32.1721C32.1721 14.5817 28.5904 11 24.1721 11V15ZM21.3909 16.1252C22.1126 15.4267 23.0905 15 24.1721 15V11C22.0112 11 20.0469 11.8594 18.6091 13.2508L21.3909 16.1252ZM18 14.5V14.688H22V14.5H18ZM11.5 8C15.0899 8 18 10.9101 18 14.5H22C22 8.70101 17.299 4 11.5 4V8Z" fill="#212121" mask="url(#path-1-inside-1_9_84)"/>
</svg>
