<svg width="36" height="36" viewBox="0 0 36 36" fill="none" xmlns="http://www.w3.org/2000/svg">
<rect width="36" height="36" fill="white"/>
<path fill-rule="evenodd" clip-rule="evenodd" d="M21.4494 13.1905C20.4747 9.06779 16.7706 6 12.35 6C7.18614 6 3 10.1861 3 15.35V28H21.7V25.0432C22.2756 25.6003 22.9524 26.0535 23.7 26.3727C24.495 26.7121 25.3702 26.9 26.2893 26.9C29.9344 26.9 32.8893 23.9451 32.8893 20.3C32.8893 16.6549 29.9344 13.7 26.2893 13.7C25.3499 13.7 24.4563 13.8963 23.6474 14.25C23.0149 14.5266 22.4342 14.8994 21.9237 15.35C21.8476 15.4172 21.773 15.4862 21.7 15.5568V15.35C21.7 14.6067 21.6133 13.8837 21.4494 13.1905ZM19.7 26V25.0432L23.0909 23.606C23.9206 24.409 25.0456 24.9 26.2893 24.9C28.8298 24.9 30.8893 22.8405 30.8893 20.3C30.8893 17.7595 28.8298 15.7 26.2893 15.7C25.0456 15.7 23.9206 16.191 23.0909 16.994L19.7 15.5568V15.35C19.7 11.2907 16.4093 8 12.35 8C8.29071 8 5 11.2907 5 15.35V26H19.7Z" fill="#212121"/>
</svg>
